<?xml version="1.0" encoding="utf-8"?>
<!-- Generator: Adobe Illustrator 25.3.1, SVG Export Plug-In . SVG Version: 6.00 Build 0)  -->
<svg version="1.1" id="图层_1" xmlns="http://www.w3.org/2000/svg" xmlns:xlink="http://www.w3.org/1999/xlink" x="0px" y="0px"
	 viewBox="0 0 377.84 105.25" style="enable-background:new 0 0 377.84 105.25;" xml:space="preserve">
<style type="text/css">
	.st0{fill:#EA171F;}
</style>
<g>
	<rect x="3.49" y="58.31" width="3.63" height="23.61"/>
	<rect x="9.11" y="54.19" width="15.19" height="31.38"/>
	<rect x="132.63" y="58.31" width="3.63" height="23.61"/>
	<rect x="115.62" y="54.19" width="15.19" height="31.38"/>
	<rect x="66.41" y="96.13" width="1.98" height="3.96"/>
	<rect x="71.69" y="96.13" width="1.98" height="3.96"/>
	<polygon points="104.56,58.15 73.68,85.07 76.98,91.84 92.83,91.84 	"/>
	<polygon points="34.87,58.15 65.75,85.07 62.45,91.84 46.59,91.84 	"/>
	<path d="M69.52,19.32c-27.72,0-50.39,21.71-51.9,49.06h5.58c1.5-24.28,21.67-43.5,46.32-43.5c24.66,0,44.83,19.22,46.33,43.5h5.58
		C119.92,41.03,97.25,19.32,69.52,19.32z"/>
	<path d="M69.6,20.06c2.31,0,12.99,0.44,27.3-12.55c2.75,2.86,1.98,12.33,2.2,12.88c2.2-0.66,8.59-2.2,14.75-13.65
		c2.86,7.6,4.95,27.19-6.17,31.38l-15.08-9.36L69.6,20.06z"/>
	<circle class="st0" cx="58.26" cy="87.98" r="3.85"/>
	<circle class="st0" cx="82.48" cy="87.98" r="3.85"/>
</g>
<g>
	<path d="M188.57,51.31v4.57h-8.9v-4.57h-19.03v-4.94h23.23v4.94C183.88,51.31,188.95,51.31,188.57,51.31z"/>
	<path d="M160.65,51.31v28.54h18.78v-9.88h-14.46v-4.82h23.6v18.04h-4.94v5.44h-23.1v-5.19h-4.45v-3.71h-4.57V56.74h4.32v-5.56
		C155.83,51.18,160.84,51.12,160.65,51.31z"/>
	<polygon points="225.52,46.61 197.72,46.61 197.72,51.43 192.9,51.43 192.9,83.43 197.59,83.43 197.59,88.62 225.35,88.62 
		225.35,79.85 201.92,79.85 201.92,70.58 220.57,70.58 220.57,65.14 201.92,65.14 201.92,51.31 225.48,51.29 	"/>
	<polygon points="262.39,46.61 234.6,46.61 234.6,51.43 229.78,51.43 229.78,83.43 234.47,83.43 234.47,88.62 262.22,88.62 
		262.22,79.85 238.8,79.85 238.8,70.58 257.45,70.58 257.45,65.14 238.8,65.14 238.8,51.31 262.36,51.29 	"/>
	<polygon points="336.71,46.61 308.91,46.61 308.91,51.43 304.09,51.43 304.09,83.43 308.79,83.43 308.79,88.62 336.54,88.62 
		336.54,79.85 313.11,79.85 313.11,70.58 331.77,70.58 331.77,65.14 313.11,65.14 313.11,51.31 336.68,51.29 	"/>
	<path d="M266.9,46.98v41.88h8.65V74.78h4.82v4.69h4.82v4.45h5.56v4.57h7.78v-8.15h-4.08v-4.82h-4.82v-5.07h-4.82v-5.07h4.94v-4.82
		h4.57v-5.19h4.57v-8.4h-8.28v4.82h-5.19v4.57h-4.94v4.94h-4.94V46.98C275.55,46.98,266.53,46.98,266.9,46.98z"/>
	<path d="M373.9,65.14V51.43h-4.57v-4.69h-27.8v42l8.76,0.03V70.34h14.45v18.49h9.02V70.46h-4.81v-5.32H373.9z M364.98,66.07h-14.69
		V51.29h14.69V66.07z"/>
</g>
</svg>
