<?xml version="1.0" encoding="utf-8"?>
<!-- Generator: Adobe Illustrator 25.3.1, SVG Export Plug-In . SVG Version: 6.00 Build 0)  -->
<svg version="1.1" id="图层_1" xmlns="http://www.w3.org/2000/svg" xmlns:xlink="http://www.w3.org/1999/xlink" x="0px" y="0px"
	 viewBox="0 0 800 240" style="enable-background:new 0 0 800 240;" xml:space="preserve">
<style type="text/css">
	.st0{fill:#CFBCB3;}
	.st1{fill:#2D2F32;}
	.st2{fill:#FFFFFF;}
	.st3{fill:#2F2E32;}
	.st4{fill:#D89888;}
	.st5{fill:#F8B358;}
	.st6{fill:#5B4035;}
	.st7{fill:#564236;}
	.st8{fill:#E7E6E3;}
</style>
<g>
	<g>
		<path class="st0" d="M218.34,191.46c0.92-19.33,4.6-60.05,8.51-69.25s22.55-30.83,19.1-46.71s-21.17-24.85-50.39-17.03
			c-11.11-14.72-38.42-48.09-66.49-52.46C96.21,0.9,72.43,9.93,72.24,26.96c-0.12,11.34,16.01,14.73,35.43,17.72
			c17.42,2.68,34.74,4.4,51.63,8.28c13.9,3.2,15.78,14.26,1.06,12.88s-55.22-8.05-81.91-3.22s-39.57,25.54-33.82,42.56
			c9.62,28.47,77.06-1.04,98.01-9.66c-5.75,12.19-4.83,93.41-4.14,96.86C139.19,195.83,218.34,191.46,218.34,191.46z"/>
	</g>
	<g>
		<path class="st1" d="M241.35,69.98c3.68-0.71,10.35-1.61,12.42,4.14c1.65,4.59,0,8.97-6.21,11.04
			c-5.61,1.87-12.42,1.15-14.03-3.91C231.92,76.19,237.67,70.7,241.35,69.98z"/>
	</g>
	<g>
		<path class="st2" d="M229.15,70.67c-1.11-5.41-6.67-11.5-16.57-8.74c-9.89,2.76-6.9,13.94-5.52,16.11
			C215.12,90.69,231,79.65,229.15,70.67z"/>
	</g>
	<g>
		<path class="st2" d="M201.32,76.19c-0.09-5.77-6.42-14.4-16.34-10.58c-8.97,3.45-7.78,13.2-5.75,17.26
			C183.14,90.69,201.55,90.23,201.32,76.19z"/>
	</g>
	<g>
		<circle class="st3" cx="222.13" cy="72.16" r="6.78"/>
	</g>
	<g>
		<circle class="st3" cx="193.83" cy="76.53" r="6.78"/>
	</g>
	<g>
		<path class="st4" d="M186.13,105.18c-2.99-6.9-12.88-11.5-20.71-5.29c-7.82,6.21-5.24,17.65,0.69,21.17
			c6.21,3.68,14.49-0.23,16.8-2.07C185.21,117.15,189.12,112.09,186.13,105.18z"/>
	</g>
	<g>
		<path d="M83.52,101.29c-0.71,0-1.39-0.36-1.79-1c-0.6-0.99-0.29-2.27,0.7-2.87c15.23-9.26,40.31-19.76,73.31-17.19
			c0.55,0.04,0.97,0.08,1.27,0.09c1.15,0.06,2.04,1.04,1.98,2.19c-0.06,1.15-1.03,2.05-2.19,1.98c-0.33-0.02-0.79-0.05-1.39-0.1
			c-31.89-2.47-56.11,7.66-70.82,16.59C84.26,101.19,83.89,101.29,83.52,101.29z"/>
	</g>
	<g>
		<path d="M210.39,105.87c-1.75,0-3.35-0.54-4.52-1.56c-0.43-0.38-0.48-1.04-0.1-1.47c0.38-0.44,1.04-0.48,1.47-0.1
			c1.16,1.02,3.1,1.32,5.04,0.79c2.29-0.62,4.06-2.19,4.73-4.18c0.18-0.55,0.77-0.84,1.32-0.66c0.55,0.18,0.84,0.77,0.66,1.32
			c-0.89,2.66-3.19,4.73-6.16,5.54C212,105.76,211.18,105.87,210.39,105.87z"/>
	</g>
	<g>
		<path class="st5" d="M253.55,224.02c-0.36-11.72-22.32-17.14-24.51,3.45c-12.08,0-72.12,1.73-76.95-0.33
			c4.83-11.75-16.8-22.79-22.45-3.47c-9.7,0.44-21.28-4.41-30.35-11.7c-3.97-3.16-7.46-6.79-10.12-10.68
			c-5.75-8.38-7.52-17.83-1.63-25.91c15.65-21.48,46.25,13.79,93.17,10.68c56.55-3.74,69.72-35.53,96.99-30.37
			c9.82,1.88,19.54,5.12,20.71,15.19C300.46,188.72,285.98,217.46,253.55,224.02z"/>
	</g>
	<g>
		<path class="st6" d="M240.77,217.12c-6.55,0.47-10.24,7.71-7.94,12.77c1.47,3.23,5.52,5.18,8.97,4.83
			c3.45-0.35,8.28-3.45,8.28-9.32C250.09,219.53,245.61,216.77,240.77,217.12z"/>
	</g>
	<g>
		<path class="st6" d="M141.04,216.77c-6.22,0-8.63,6.21-8.63,9.66s2.42,8.97,8.28,8.97s8.67-5.17,8.97-9.32
			C150.01,221.37,147.25,216.77,141.04,216.77z"/>
	</g>
	<g>
		<path class="st7" d="M233.18,182.27c-0.05,0-0.1,0-0.15-0.01c-0.57-0.08-0.97-0.61-0.88-1.19c4.69-32.25,14.09-46.61,20.71-49.1
			c2.12-0.8,4.08-0.49,5.69,0.87c4.16,3.55,5,13.72,2.23,27.19c-0.12,0.57-0.66,0.93-1.23,0.81c-0.57-0.12-0.93-0.67-0.81-1.23
			c3.07-14.97,1.22-22.82-1.54-25.18c-1.02-0.87-2.2-1.04-3.59-0.51c-6.36,2.39-15.14,18.26-19.38,47.45
			C234.14,181.9,233.69,182.27,233.18,182.27z"/>
	</g>
	<g>
		<path class="st8" d="M301.17,175.36c-7.25-1.38-21.16-1.98-26.57,11.73c-5.18,13.11,11.73,14.49,14.15,15.53
			C294.61,194.68,301.17,175.36,301.17,175.36z"/>
	</g>
	<g>
		<path class="st8" d="M99.29,211.96c-3.97-3.16-7.46-6.79-10.12-10.68c5.33-2.63,11.91-4.43,14.23-0.04
			C105.5,205.19,102.57,209.16,99.29,211.96z"/>
	</g>
</g>
<g>
	<path d="M383.72,73.26c1.21-0.27,2.55-0.54,4.17-0.54s2.96,0.27,4.17,0.54c0.27,4.57,0.4,8.73,0.67,12.77
		c6.18,0.27,11.42,0.54,15.45,0.94c0.27,0.81,0.54,2.28,0.54,4.17c0,2.15-0.27,3.49-0.54,4.03c-1.08,0.54-6.18,0.81-15.32,0.81v1.88
		c0,4.84-0.27,9-0.67,12.63c10.21,0.13,17.47,0.4,21.9,0.81c0.13,1.08,0.27,2.28,0.27,3.63v4.03c-1.88,0.54-9,0.94-21.5,0.94
		c0.13,3.49,0.27,6.72,0.27,9.94c4.57,0.27,9.68,0.67,15.18,1.34c0,2.96-0.54,5.51-1.34,7.66c-5.51,0-10.08-0.27-13.71-0.81
		c0,3.36,0.13,6.58,0.13,9.81c-1.08,0.54-2.69,0.67-4.57,0.67c-1.75,0-3.22,0-4.43-0.27c-0.81-9.27-1.34-18.68-1.48-28.35
		c-9.67,0-16.66-0.4-20.96-0.94c-0.4-1.21-0.54-2.69-0.54-4.3c0-1.48,0-2.82,0.27-3.9c5.91-0.13,13.17-0.27,21.77-0.27
		c-0.4-3.63-0.54-7.52-0.54-11.82v-2.69c-9.94,0-15.45-0.27-16.39-0.81c-0.4-1.08-0.54-2.55-0.54-4.3c0-1.61,0.27-3.09,0.81-4.43
		c5.11-0.13,10.48-0.27,16.39-0.4C383.19,81.72,383.45,77.56,383.72,73.26z M377,138.29c-1.61,5.64-3.23,11.29-4.7,16.8
		c13.03,2.69,25.8,5.24,38.43,7.66c-0.27,2.42-0.94,5.11-2.15,8.06c-16.12-2.15-31.85-5.24-47.03-9.41
		c2.02-8.87,4.43-17.47,7.26-25.67C371.63,136.41,374.32,137.22,377,138.29z M451.31,87.9c0.13,0.81,0.27,2.02,0.27,3.76
		c0,1.88-0.13,3.09-0.27,3.63c-1.21,0.54-7.39,0.67-18.54,0.67h-5.78c0,3.49-0.13,7.12-0.13,10.62c2.69,0.27,5.64,0.54,8.73,1.07
		c0,2.42-0.4,4.7-1.08,6.58c-2.96,0-5.64-0.13-7.79-0.4c-0.13,4.3-0.27,8.73-0.27,13.03h7.52c0.27,1.08,0.4,2.15,0.4,3.49
		c0,1.08-0.13,2.15-0.27,3.23c-1.08,0.67-2.55,0.94-4.7,0.94h-3.09c-0.13,3.76-0.27,7.26-0.4,10.75c4.3-0.54,8.87-0.94,13.44-1.48
		c-0.54-12.77-0.67-25.66-0.67-38.7c1.34,0,2.82-0.13,4.7-0.4c1.75,0,3.22,0.13,4.3,0.13c0.27,12.63,0.4,25.4,0.54,38.3
		c1.48-0.13,2.96-0.27,4.43-0.4c1.07,2.69,1.61,5.24,1.61,7.66c-2.02,0.4-4.03,0.81-6.05,1.08c0,3.76,0.13,7.52,0.13,11.02
		c-1.08,0.54-2.42,0.67-4.17,0.67c-1.61,0-2.96,0-4.03-0.13c-0.27-3.49-0.4-6.85-0.4-10.35c-8.6,1.21-17.47,2.02-26.47,2.42
		c-0.81-2.42-1.34-4.84-1.48-7.53c1.75-0.27,3.49-0.67,5.38-0.94c0-21.77,0.27-38.7,0.81-50.93c-2.28,0-3.63-0.13-4.03-0.4
		c-0.27-1.08-0.4-2.28-0.4-3.9c0-1.34,0.13-2.69,0.67-3.9c5.64-0.27,11.82-0.54,18.54-0.54C440.43,86.96,446.61,87.37,451.31,87.9z
		 M476.44,108.19c-1.61,8.47-3.36,16.39-5.24,23.78c-0.13,0.27-0.13,0.54-0.13,0.67c3.36,1.61,6.72,3.23,9.94,5.11
		c-0.67,2.15-1.75,4.43-3.36,6.58c-2.82-0.67-5.64-1.61-8.6-2.69c-1.61,5.91-2.96,9.81-4.03,11.96c-3.22-0.27-5.64-1.08-7.52-2.28
		c0.81-4.57,1.61-9,2.55-13.44c-2.42-1.08-4.84-2.28-7.26-3.63c0.54-2.42,1.61-4.84,2.96-7.26c2.02,0.67,4.03,1.34,6.05,1.88
		c0.81-4.84,1.75-9.81,2.82-14.65c-5.64-0.54-10.48-1.34-14.51-2.28c0.54-2.96,1.34-5.51,2.28-7.66
		C461.12,105.37,469.18,106.58,476.44,108.19z"/>
	<path d="M520.24,95.16c0,6.45-0.54,13.44-1.61,21.1c4.7,1.34,13.84,2.15,27.55,2.42c-0.94-8.33-1.88-16.53-2.69-24.86
		c3.36-0.81,6.45-1.34,9.41-1.34c1.34,8.87,2.55,17.6,3.63,26.34c20.42,0,34.4-0.67,41.65-2.02c0.67,2.96,1.08,5.91,1.08,8.87
		c-6.45,2.42-20.16,3.63-41.39,3.9c1.61,14.51,2.82,29.16,3.63,43.94c-6.05,2.15-13.84,3.22-23.38,3.22
		c-1.07-1.88-1.75-4.43-1.88-7.66c5.11-1.07,10.21-1.75,15.32-2.02c-1.48-12.5-2.82-24.99-4.17-37.49
		c-19.35-0.27-32.52-1.48-39.64-3.63c0-9.94,0.67-20.29,2.28-31.04c1.08-0.13,2.82-0.27,5.24-0.27
		C518.49,95.02,520.24,95.16,520.24,95.16z M591.86,77.42c0.13,0.94,0.27,2.42,0.27,4.43c-27.68,3.9-55.09,6.85-82.37,8.73
		c-0.81-1.61-1.08-3.09-1.08-4.7v-4.03c27.68-3.49,55.09-6.18,82.5-8.33C591.59,74.87,591.86,76.21,591.86,77.42z M528.97,146.89
		c-2.15,6.99-4.57,14.78-7.52,23.25c-3.63-0.27-6.72-1.21-9.27-2.96c1.88-8.46,4.3-16.39,7.52-23.65
		C522.92,144.34,526.01,145.41,528.97,146.89z M594.27,152c1.61,3.22,3.09,6.32,4.17,9.14c-2.69,2.02-5.64,3.23-8.87,3.9
		c-4.17-6.18-7.39-12.77-9.81-19.48c3.22-1.61,6.18-2.82,9.14-3.63C590.78,145.41,592.66,148.77,594.27,152z"/>
	<path d="M701.09,92.87c-9-2.42-17.33-5.11-24.99-7.79c-1.34,1.21-2.55,2.28-3.63,3.09c-2.82,2.42-5.78,4.7-8.73,6.99
		c-2.96,2.55-6.18,4.97-9.41,7.26c-2.55-1.61-4.7-3.49-6.45-5.91c9.41-9.67,20.29-19.08,32.79-28.22c2.82,1.61,5.11,3.36,6.85,5.38
		c-1.34,1.61-2.55,2.96-3.9,4.3c9.41,2.69,19.75,5.78,30.77,9.41c-1.08,3.49-3.76,8.73-8.06,15.59c9.67,0.67,16.8,1.48,21.5,2.28
		c1.08,4.97,1.61,11.82,1.61,20.42c0,5.91-0.4,10.61-1.08,14.11c-3.22,1.34-13.57,1.88-30.77,1.88c-5.51-0.13-10.48-0.4-14.78-0.67
		c-6.45,13.03-12.63,24.59-18.54,34.94c-2.96-0.81-5.37-2.02-7.12-3.9c2.96-7.26,7.93-17.74,14.92-31.71
		c-11.96-0.81-20.16-2.02-24.72-3.63c-0.81-2.55-1.07-6.72-1.07-12.63c0-4.7,0.54-10.21,1.75-16.53c1.34-0.27,2.96-0.54,4.84-0.54
		c1.61,0,3.22,0.27,4.7,0.54c-0.81,9.41-1.08,16.93-1.08,22.71c6.45,0.54,13.03,1.08,19.89,1.34c2.96-6.18,6.32-12.77,9.94-19.89
		c-6.85-0.13-13.84-0.27-20.96-0.27c-0.4-1.34-0.54-2.82-0.54-4.3s0.13-2.82,0.54-3.9c8.87-0.4,18.95-0.67,30.37-0.67
		C697.87,99.19,699.75,95.97,701.09,92.87z M687.25,131.98c3.09,0.13,6.18,0.13,9.41,0.13c7.93,0,15.72,0.27,23.38,0.54
		c-0.27-6.58-0.4-12.9-0.54-19.08c-7.52-0.54-15.18-1.07-23.11-1.48C693.17,119.08,690.21,125.79,687.25,131.98z M702.71,150.25
		c-0.54,6.05-0.67,11.56-0.67,16.53h13.44v-6.45c1.48-0.13,2.69-0.27,3.63-0.27c1.34,0,2.69,0.13,3.9,0.27
		c0.27,2.42,0.54,4.7,0.54,6.85c0,2.96-0.27,4.97-0.54,6.18c-3.23,0.94-8.6,1.48-15.99,1.48s-12.23-0.54-14.38-1.48
		c0-7.79,0.27-15.45,0.94-23.38c0.94-0.13,2.55-0.27,4.7-0.27C699.35,149.71,700.82,149.98,702.71,150.25z M734.55,155.09
		c-1.48,1.21-3.63,2.42-6.45,3.63c-2.55-2.69-4.84-6.18-6.85-10.48c1.88-1.34,4.17-2.55,6.72-3.36
		C730.92,148.64,733.21,152.13,734.55,155.09z"/>
</g>
<g>
	<path d="M384.03,204.15c-0.23,0.1-0.81,0.2-1.78,0.26c-0.94,0.07-1.95,0.1-3.05,0.1c0,5.32,0,9.02,0.06,11.09
		c-0.39,0.06-0.75,0.1-1.14,0.1c-0.65,0-1.01-0.03-1.07-0.03c-0.26-3.21-0.39-6.94-0.39-11.16c-1.62,0-3.05-0.07-4.31-0.26
		c-0.1-0.16-0.13-0.45-0.13-0.91c0-0.39,0.03-0.71,0.13-0.97c0.29-0.13,1.72-0.19,4.28-0.19c0-4.09,0.23-6.39,0.75-6.91
		c0.26-0.71,2.08-1.13,5.45-1.33c0.16,0.55,0.26,1.17,0.26,1.88c-2.47,0.36-3.7,0.71-3.7,1.07c-0.13,0.29-0.19,2.04-0.19,5.29
		c2.21,0,3.8,0.06,4.83,0.16c0,0.29,0.03,0.62,0.06,0.94C384.09,203.66,384.06,203.95,384.03,204.15z"/>
	<path d="M417.45,215.44c-0.13-0.62-0.29-1.36-0.42-2.27c-1.52,1.69-3.31,2.53-5.38,2.56c-2.34,0-4.02-0.65-5-1.98
		c-0.84-1.04-1.3-2.53-1.3-4.51c0-1.78,0.45-4.19,1.43-7.2c0.75,0.07,1.36,0.26,1.85,0.58c-0.68,2.85-1.01,5.03-1.01,6.46
		c0,1.43,0.26,2.5,0.81,3.15c0.65,0.91,1.75,1.33,3.24,1.33c1.82,0,3.44-0.81,4.93-2.47c-0.55-4.41-0.88-7.3-0.97-8.63
		c0.39-0.26,1.04-0.39,1.88-0.42c0.32,0.91,0.71,3.28,1.2,7.14c0.39,3.37,0.58,5.35,0.65,5.9
		C418.61,215.34,417.96,215.44,417.45,215.44z"/>
	<path d="M443.86,215.5c-0.26,0.13-0.58,0.19-1,0.19c-0.45,0-0.81-0.03-1.07-0.13c-0.19-0.62-0.36-3.34-0.45-8.21
		c-0.06-1.95-0.06-3.67-0.06-5.16c0.39-0.1,0.75-0.16,1.07-0.16c0.19,0,0.55,0.03,1.01,0.1c0.1,0.78,0.19,2.43,0.32,5.03
		c0.13,3.11,0.23,5.51,0.23,7.27C443.89,215.08,443.86,215.44,443.86,215.5z M454.24,215.63c-0.97,0-1.62-0.16-2.01-0.45
		c0.55-3.21,0.84-5.51,0.84-6.88c0-1.36-0.29-2.37-0.88-3.02c-0.68-0.68-1.49-1.04-2.43-1.04c-1.1,0.06-2.43,0.52-4.05,1.36
		c-0.58-0.39-0.88-0.97-0.88-1.72c1.33-1.2,3.05-1.82,5.19-1.88c1.62,0,2.98,0.65,4.05,1.88c0.91,1.17,1.36,2.59,1.36,4.22
		C455.37,211.38,454.98,213.88,454.24,215.63z"/>
	<path d="M480.49,215.5c-0.32,0.16-0.62,0.23-0.94,0.23c-0.36,0-0.68-0.06-0.97-0.16c-0.29-0.65-0.42-4.09-0.42-10.25
		c0-2.72,0.03-6.46,0.16-11.22c0.2-0.1,0.55-0.16,1.07-0.16c0.36,0,0.68,0.07,1.01,0.2c0.16,1.17,0.26,5.51,0.26,13.07
		C480.65,212.39,480.58,215.18,480.49,215.5z"/>
	<path d="M516.76,209.5c-1.36,0.49-5.09,0.84-11.13,1.1c0.71,2.01,2.37,2.98,4.96,2.98c1.17,0,2.37-0.26,3.57-0.81
		c0.32,0.42,0.52,1,0.65,1.75c-1.39,0.81-2.82,1.2-4.31,1.2c-2.4-0.03-4.31-0.65-5.68-1.88c-1.2-1.17-1.78-2.69-1.78-4.51
		c0-2.01,0.49-3.63,1.52-4.9c1.43-1.65,3.24-2.5,5.42-2.5c2.08,0,3.7,0.58,4.93,1.72c1.3,1.3,1.98,2.89,2.01,4.8
		C516.92,209.11,516.86,209.47,516.76,209.5z M513.77,205.71c-0.84-1.1-2.11-1.69-3.76-1.69c-1.23,0-2.34,0.49-3.28,1.46
		c-0.78,0.81-1.2,1.88-1.3,3.24c1.07-0.06,4.09-0.32,9.08-0.75C514.49,207.2,514.23,206.42,513.77,205.71z"/>
	<path d="M543.85,202.2c2.14,0,3.7,0.1,4.61,0.26c0,0.29,0.03,0.58,0.06,0.88c0,0.39-0.03,0.68-0.06,0.88
		c-0.19,0.06-0.78,0.13-1.72,0.19c-0.97,0.07-1.98,0.07-3.08,0.07c-0.19,4.51-0.32,7.36-0.32,8.6c0,0.33,0.16,0.49,0.55,0.49
		c0.1,0,0.45-0.03,1.04-0.1c0.78-0.16,1.46-0.29,2.01-0.36c0.13,0.23,0.19,0.55,0.23,0.97c0,0.13-0.03,0.36-0.03,0.68
		c-1.2,0.65-2.56,0.94-4.06,0.94c-0.84,0-1.46-0.23-1.78-0.71c-0.26-0.36-0.39-0.91-0.39-1.65c0-1.88,0.1-4.87,0.36-8.92
		c-1.13,0-2.17-0.1-3.15-0.26c-0.06-0.16-0.1-0.45-0.1-0.91c0-0.36,0.03-0.65,0.1-0.91c1.17-0.1,2.27-0.16,3.31-0.16
		c0.2-2.63,0.39-5.09,0.62-7.43c0.45,0,1.17,0.06,2.11,0.13C544.04,197.37,543.95,199.8,543.85,202.2z"/>
	<path d="M581.88,215.44c-0.13-0.62-0.29-1.36-0.42-2.27c-1.52,1.69-3.31,2.53-5.38,2.56c-2.34,0-4.02-0.65-5-1.98
		c-0.84-1.04-1.3-2.53-1.3-4.51c0-1.78,0.45-4.19,1.43-7.2c0.75,0.07,1.36,0.26,1.85,0.58c-0.68,2.85-1.01,5.03-1.01,6.46
		c0,1.43,0.26,2.5,0.81,3.15c0.65,0.91,1.75,1.33,3.24,1.33c1.82,0,3.44-0.81,4.93-2.47c-0.55-4.41-0.88-7.3-0.97-8.63
		c0.39-0.26,1.04-0.39,1.88-0.42c0.32,0.91,0.71,3.28,1.2,7.14c0.39,3.37,0.58,5.35,0.65,5.9
		C583.04,215.34,582.39,215.44,581.88,215.44z"/>
	<path d="M609.13,214.76c-0.32,0.62-0.62,1.04-0.84,1.33c-1.33-0.36-2.4-0.84-3.24-1.56c0.13-0.84,0.58-1.85,1.33-3.02
		c0.88,0.06,1.98,0.55,3.28,1.46C609.65,213.36,609.45,213.98,609.13,214.76z"/>
	<path d="M638,215.73c-1.72,0-3.28-0.55-4.67-1.65c-1.52-1.26-2.27-2.98-2.27-5.19c0.13-4.28,2.4-6.58,6.84-6.91
		c1.17,0,2.24,0.23,3.24,0.68c1.1,0.52,1.91,1.23,2.43,2.14c-0.32,0.39-0.49,0.58-0.55,0.62c-0.26,0.26-0.49,0.39-0.68,0.45
		c-1.07-1.17-2.56-1.75-4.44-1.78c-2.92,0.29-4.44,1.91-4.54,4.83c0,1.49,0.52,2.69,1.59,3.6c1.01,0.71,1.98,1.07,2.95,1.07
		c1.39,0,2.95-0.65,4.7-1.95c0.29,0.06,0.68,0.55,1.17,1.43C642.03,214.85,640.08,215.73,638,215.73z"/>
	<path d="M674.76,203.92c-0.16,0.32-0.29,0.55-0.42,0.68c-0.84-0.42-1.65-0.65-2.46-0.65c-1.43,0.03-2.6,0.62-3.54,1.78
		c-0.75,0.97-1.1,2.08-1.1,3.34c0,1.23,0.39,2.37,1.23,3.34c0.84,0.91,1.85,1.36,3.08,1.36c0.58,0,1.17-0.1,1.75-0.29
		c0.33,0.49,0.49,1.04,0.55,1.69c-0.62,0.42-1.39,0.62-2.3,0.62c-1.98,0-3.57-0.62-4.8-1.91c-1.26-1.36-1.88-2.98-1.88-4.83
		c0-1.85,0.58-3.47,1.75-4.87c1.33-1.46,3.08-2.21,5.22-2.27c1.3,0,2.4,0.32,3.31,0.97C675.12,203.27,674.99,203.6,674.76,203.92z
		 M677.94,212.42c-0.75,1.04-1.62,1.72-2.6,2.04c-0.26-0.39-0.42-0.65-0.49-0.81c-0.07-0.13-0.23-0.39-0.45-0.78
		c0.58-0.39,1.14-0.94,1.65-1.65c0.45-0.68,0.68-1.39,0.68-2.17c0-1.39-0.49-2.69-1.46-3.86c0.36-0.62,0.81-1.04,1.39-1.26
		c1.52,1.36,2.3,3.08,2.3,5.22C678.98,210.31,678.62,211.41,677.94,212.42z"/>
	<path d="M702.83,215.7c-0.52,0-0.88-0.03-1.01-0.03c-0.29-1.01-0.52-3.21-0.65-6.65c-0.1-2.34-0.13-4.28-0.13-5.87
		c0-0.33,0-0.62,0.03-0.91c0.32-0.13,0.65-0.19,0.91-0.19c0.52,0,0.88,0.03,1.1,0.1c0.19,1.17,0.36,3.18,0.52,6.03
		c0.1,2.73,0.16,4.83,0.16,6.29v0.97C703.51,215.63,703.22,215.7,702.83,215.7z M720.74,212.78c-0.36,1.75-0.65,2.72-0.84,2.89
		c-0.97,0-1.56-0.13-1.82-0.42c0.45-3.24,0.68-5.32,0.68-6.29c0-0.81-0.16-1.53-0.42-2.11c-0.46-0.65-1.01-1-1.62-1.04
		c-1.04,0.03-2.63,1.17-4.77,3.41c-1.3-3.18-2.66-4.8-4.05-4.83c-0.97,0-1.95,0.55-2.92,1.65c-0.1-0.06-0.26-0.32-0.49-0.75
		c-0.23-0.39-0.32-0.71-0.32-0.94c1.1-1.53,2.37-2.3,3.86-2.34c1.78,0.03,3.31,1.36,4.54,3.99c1.36-1.69,2.72-2.53,4.15-2.56
		c1.46,0,2.63,0.65,3.5,1.95c0.58,0.97,0.88,2.17,0.88,3.63C721.06,210.57,720.93,211.8,720.74,212.78z"/>
</g>
</svg>
