<?xml version="1.0" encoding="utf-8"?>
<!-- Generator: Adobe Illustrator 25.3.1, SVG Export Plug-In . SVG Version: 6.00 Build 0)  -->
<svg version="1.1" id="图层_1" xmlns="http://www.w3.org/2000/svg" xmlns:xlink="http://www.w3.org/1999/xlink" x="0px" y="0px"
	 viewBox="0 0 800 240" style="enable-background:new 0 0 800 240;" xml:space="preserve">
<style type="text/css">
	.st0{fill:#CFBCB3;}
	.st1{fill:#2D2F32;}
	.st2{fill:#FFFFFF;}
	.st3{fill:#2F2E32;}
	.st4{fill:#D89888;}
	.st5{fill:#F8B358;}
	.st6{fill:#5B4035;}
	.st7{fill:#564236;}
	.st8{fill:#E7E6E3;}
	.st9{font-family:'DFWaWaSC-W5-GBpc-EUC-H';}
	.st10{font-size:134.3643px;}
	.st11{font-size:32.4448px;}
	.st12{letter-spacing:19;}
</style>
<g>
	<g>
		<g>
			<path class="st0" d="M218.34,191.46c0.92-19.33,4.6-60.05,8.51-69.25s22.55-30.83,19.1-46.71s-21.17-24.85-50.39-17.03
				c-11.11-14.72-38.42-48.09-66.49-52.46C96.21,0.9,72.43,9.93,72.24,26.96c-0.12,11.34,16.01,14.73,35.43,17.72
				c17.42,2.68,34.74,4.4,51.63,8.28c13.9,3.2,15.78,14.26,1.06,12.88s-55.22-8.05-81.91-3.22s-39.57,25.54-33.82,42.56
				c9.62,28.47,77.06-1.04,98.01-9.66c-5.75,12.19-4.83,93.41-4.14,96.86C139.19,195.83,218.34,191.46,218.34,191.46z"/>
		</g>
		<g>
			<path class="st1" d="M241.35,69.98c3.68-0.71,10.35-1.61,12.42,4.14c1.65,4.59,0,8.97-6.21,11.04
				c-5.61,1.87-12.42,1.15-14.03-3.91C231.92,76.19,237.67,70.7,241.35,69.98z"/>
		</g>
		<g>
			<path class="st2" d="M229.15,70.67c-1.11-5.41-6.67-11.5-16.57-8.74c-9.89,2.76-6.9,13.94-5.52,16.11
				C215.12,90.69,231,79.65,229.15,70.67z"/>
		</g>
		<g>
			<path class="st2" d="M201.32,76.19c-0.09-5.77-6.42-14.4-16.34-10.58c-8.97,3.45-7.78,13.2-5.75,17.26
				C183.14,90.69,201.55,90.23,201.32,76.19z"/>
		</g>
		<g>
			<circle class="st3" cx="222.13" cy="72.16" r="6.78"/>
		</g>
		<g>
			<circle class="st3" cx="193.83" cy="76.53" r="6.78"/>
		</g>
		<g>
			<path class="st4" d="M186.13,105.18c-2.99-6.9-12.88-11.5-20.71-5.29c-7.82,6.21-5.24,17.65,0.69,21.17
				c6.21,3.68,14.49-0.23,16.8-2.07C185.21,117.15,189.12,112.09,186.13,105.18z"/>
		</g>
		<g>
			<path d="M83.52,101.29c-0.71,0-1.39-0.36-1.79-1c-0.6-0.99-0.29-2.27,0.7-2.87c15.23-9.26,40.31-19.76,73.31-17.19
				c0.55,0.04,0.97,0.08,1.27,0.09c1.15,0.06,2.04,1.04,1.98,2.19c-0.06,1.15-1.03,2.05-2.19,1.98c-0.33-0.02-0.79-0.05-1.39-0.1
				c-31.89-2.47-56.11,7.66-70.82,16.59C84.26,101.19,83.89,101.29,83.52,101.29z"/>
		</g>
		<g>
			<path d="M210.39,105.87c-1.75,0-3.35-0.54-4.52-1.56c-0.43-0.38-0.48-1.04-0.1-1.47c0.38-0.44,1.04-0.48,1.47-0.1
				c1.16,1.02,3.1,1.32,5.04,0.79c2.29-0.62,4.06-2.19,4.73-4.18c0.18-0.55,0.77-0.84,1.32-0.66c0.55,0.18,0.84,0.77,0.66,1.32
				c-0.89,2.66-3.19,4.73-6.16,5.54C212,105.76,211.18,105.87,210.39,105.87z"/>
		</g>
		<g>
			<path class="st5" d="M253.55,224.02c-0.36-11.72-22.32-17.14-24.51,3.45c-12.08,0-72.12,1.73-76.95-0.33
				c4.83-11.75-16.8-22.79-22.45-3.47c-9.7,0.44-21.28-4.41-30.35-11.7c-3.97-3.16-7.46-6.79-10.12-10.68
				c-5.75-8.38-7.52-17.83-1.63-25.91c15.65-21.48,46.25,13.79,93.17,10.68c56.55-3.74,69.72-35.53,96.99-30.37
				c9.82,1.88,19.54,5.12,20.71,15.19C300.46,188.72,285.98,217.46,253.55,224.02z"/>
		</g>
		<g>
			<path class="st6" d="M240.77,217.12c-6.55,0.47-10.24,7.71-7.94,12.77c1.47,3.23,5.52,5.18,8.97,4.83
				c3.45-0.35,8.28-3.45,8.28-9.32C250.09,219.53,245.61,216.77,240.77,217.12z"/>
		</g>
		<g>
			<path class="st6" d="M141.04,216.77c-6.22,0-8.63,6.21-8.63,9.66s2.42,8.97,8.28,8.97s8.67-5.17,8.97-9.32
				C150.01,221.37,147.25,216.77,141.04,216.77z"/>
		</g>
		<g>
			<path class="st7" d="M233.18,182.27c-0.05,0-0.1,0-0.15-0.01c-0.57-0.08-0.97-0.61-0.88-1.19c4.69-32.25,14.09-46.61,20.71-49.1
				c2.12-0.8,4.08-0.49,5.69,0.87c4.16,3.55,5,13.72,2.23,27.19c-0.12,0.57-0.66,0.93-1.23,0.81c-0.57-0.12-0.93-0.67-0.81-1.23
				c3.07-14.97,1.22-22.82-1.54-25.18c-1.02-0.87-2.2-1.04-3.59-0.51c-6.36,2.39-15.14,18.26-19.38,47.45
				C234.14,181.9,233.69,182.27,233.18,182.27z"/>
		</g>
		<g>
			<path class="st8" d="M301.17,175.36c-7.25-1.38-21.16-1.98-26.57,11.73c-5.18,13.11,11.73,14.49,14.15,15.53
				C294.61,194.68,301.17,175.36,301.17,175.36z"/>
		</g>
		<g>
			<path class="st8" d="M99.29,211.96c-3.97-3.16-7.46-6.79-10.12-10.68c5.33-2.63,11.91-4.43,14.23-0.04
				C105.5,205.19,102.57,209.16,99.29,211.96z"/>
		</g>
	</g>
	<text transform="matrix(1 0 0 1 353.6242 164.2245)" class="st9 st10">趣乐兔</text>
	<text transform="matrix(1 0 0 1 371.5715 215.6639)" class="st9 st11 st12">funletu.com</text>
</g>
</svg>
